P1
27 12
111111111111111111111111111
101010101010101010101010101
111111111111111111111111111
101010101010101010101010111
111111111111111111111111111
101010101010101010101010101
111111111111111111111111111
101010101010101010101010111
111111111111111111111111111
101010101010101010101010101
111111111111111111111111111
111011101110111011101110111
