P3
27 12
255
62 62 62  62 62 62  62 62 62  62 62 62  62 62 62  62 62 62
62 62 62  62 62 62  62 62 62  62 62 62  62 62 62  62 62 62
62 62 62  62 62 62  62 62 62  62 62 62  62 62 62  62 62 62
62 62 62  62 62 62  62 62 62  62 62 62  62 62 62  62 62 62
45 45 45  45 45 45  45 45 45
62 62 62  62 62 62  62 62 62  62 62 62  62 62 62  62 62 62
62 62 62  62 62 62  62 62 62  62 62 62  62 62 62  62 62 62
62 62 62  62 62 62  62 62 62  62 62 62  62 62 62  62 62 62
62 62 62  62 62 62  62 62 62  62 62 62  62 62 62  62 62 62
45 45 45  45 45 45  45 45 45
62 62 62  62 62 62  62 62 62  62 62 62  62 62 62  62 62 62
62 62 62  62 62 62  62 62 62  62 62 62  62 62 62  62 62 62
62 62 62  62 62 62  62 62 62  62 62 62  62 62 62  62 62 62
62 62 62  62 62 62  62 62 62  62 62 62  62 62 62  62 62 62
45 45 45  45 45 45  45 45 45
62 62 62  62 62 62  62 62 62  62 62 62  62 62 62  62 62 62
62 62 62  62 62 62  62 62 62  62 62 62  62 62 62  62 62 62
62 62 62  62 62 62  62 62 62  62 62 62  62 62 62  62 62 62
62 62 62  62 62 62  62 62 62  62 62 62  62 62 62  62 62 62
45 45 45  45 45 45  45 45 45
62 62 62  62 62 62  62 62 62  62 62 62  62 62 62  62 62 62
62 62 62  62 62 62  62 62 62  62 62 62  62 62 62  62 62 62
62 62 62  62 62 62  62 62 62  62 62 62  62 62 62  62 62 62
62 62 62  62 62 62  62 62 62  62 62 62  62 62 62  62 62 62
45 45 45  45 45 45  45 45 45
62 62 62  62 62 62  62 62 62  62 62 62  62 62 62  62 62 62
62 62 62  62 62 62  62 62 62  62 62 62  62 62 62  62 62 62
62 62 62  62 62 62  62 62 62  62 62 62  62 62 62  62 62 62
62 62 62  62 62 62  62 62 62  62 62 62  62 62 62  62 62 62
45 45 45  45 45 45  45 45 45
62 62 62  62 62 62  62 62 62  62 62 62  62 62 62  62 62 62
62 62 62  62 62 62  62 62 62  62 62 62  62 62 62  62 62 62
62 62 62  62 62 62  62 62 62  62 62 62  62 62 62  62 62 62
62 62 62  62 62 62  62 62 62  62 62 62  62 62 62  62 62 62
45 45 45  45 45 45  45 45 45
62 62 62  62 62 62  62 62 62  62 62 62  62 62 62  62 62 62
62 62 62  62 62 62  62 62 62  62 62 62  62 62 62  62 62 62
62 62 62  62 62 62  62 62 62  62 62 62  62 62 62  62 62 62
62 62 62  62 62 62  62 62 62  62 62 62  62 62 62  62 62 62
45 45 45  45 45 45  45 45 45
45 45 45  45 45 45  45 45 45  45 45 45  45 45 45  45 45 45
45 45 45  45 45 45  45 45 45  45 45 45  45 45 45  45 45 45
45 45 45  45 45 45  45 45 45  45 45 45  45 45 45  45 45 45
45 45 45  45 45 45  45 45 45  45 45 45  45 45 45  45 45 45
45 45 45  45 45 45  45 45 45
45 45 45  45 45 45  45 45 45  45 45 45  45 45 45  45 45 45
45 45 45  45 45 45  45 45 45  45 45 45  45 45 45  45 45 45
45 45 45  45 45 45  45 45 45  45 45 45  45 45 45  45 45 45
45 45 45  45 45 45  45 45 45  45 45 45  45 45 45  45 45 45
45 45 45  45 45 45  45 45 45
45 45 45  45 45 45  45 45 45  45 45 45  45 45 45  45 45 45
45 45 45  45 45 45  45 45 45  45 45 45  45 45 45  45 45 45
45 45 45  45 45 45  45 45 45  45 45 45  45 45 45  45 45 45
45 45 45  45 45 45  45 45 45  45 45 45  45 45 45  45 45 45
45 45 45  45 45 45  45 45 45
45 45 45  45 45 45  45 45 45  45 45 45  45 45 45  45 45 45
45 45 45  45 45 45  45 45 45  45 45 45  45 45 45  45 45 45
45 45 45  45 45 45  45 45 45  45 45 45  45 45 45  45 45 45
45 45 45  45 45 45  45 45 45  45 45 45  45 45 45  45 45 45
45 45 45  45 45 45  45 45 45
